<svg xmlns="http://www.w3.org/2000/svg" viewBox="0 0 421 466.1"><defs><style>.cls-1{fill:#4f46e5;}</style></defs><title>Asset 5</title><g id="Layer_2" data-name="Layer 2"><g id="Layer_1-2" data-name="Layer 1"><path class="cls-1" d="M413.31,256.76h0c-3.25-5-11.77-16.86-26.27-23.72,14.49-6.89,23-18.71,26.18-23.68h0c2.4-4.4,11.59-22.4,5.8-44.06S396.55,132.91,392,130c-17.94-11.21-29.52-5.7-64-10.81-22.93-3.4-40.58-6-58.86-16.31-23.7-13.35-39.05-34.33-57.5-59.53-14-19.17-17.61-28.16-31.44-35.66-4.56-2.47-22.19-11.68-44.06-5.8S103.31,24.82,100.79,29h0c-2.71,5.31-8.66,18.5-7.43,34.37-13.63-10.17-29.1-11.68-35.26-12h0c-5,.12-25.19,1.16-41.06,17S.23,104,0,109.43C-.7,130.57,9.86,137.84,22.7,170.3c8.52,21.56,15.08,38.15,15.3,59.13.29,27.2-10.2,51-22.8,79.56C5.62,330.73-.38,338.33,0,354.05c.13,5.19,1,25.06,17,41.06s36.2,16.91,41.06,17h0c6.29-.32,22-1.89,35.66-12.3-2.3,17.24,4.27,31.75,7.13,37.32h0c2.6,4.28,13.6,21.24,35.25,27.05s39.29-3.26,44.07-5.8c18.68-9.93,19.69-22.72,41.38-50.06,14.41-18.16,25.5-32.14,43.56-42.82,23.42-13.85,49.26-16.66,80.3-20,23.62-2.57,33.2-1.18,46.61-9.4,4.42-2.71,21.21-13.38,27.05-35.26S415.66,261,413.31,256.76Zm-110.57,13C288,289,271.11,311.09,246.82,325.59c-20.8,12.42-41.61,16-62.74,19.71-32.81,5.71-44.21,1.07-61.94,12.52a76,76,0,0,0-6.77,4.87,66.29,66.29,0,0,0,.8-8.64c.49-15.65-5.31-23.27-14-44.18-9.33-22.42-20-48.07-20.42-76.35-.35-24.23,6.92-44.06,14.3-64.19,11.46-31.27,21.18-38.83,20.13-59.9-.07-1.33-.18-3.24-.45-5.55A68,68,0,0,0,122,108.3c13.31,8.25,22.81,7,45.27,10,24.08,3.13,51.64,6.71,76.33,20.49,21.16,11.81,34.7,28,48.45,44.48,21.35,25.56,23,37.75,41.81,47.39,1.2.61,3,1.49,5.14,2.42-2.26,1-4,1.89-5.05,2.47C320.2,242.91,316.5,251.74,302.74,269.73Z"/></g></g></svg>