<svg xmlns="http://www.w3.org/2000/svg" viewBox="0 0 394 394"><defs><style>.cls-1{fill:#4f46e5;}.cls-2{fill:#fff;}</style></defs><title>Asset 11</title><g id="Layer_2" data-name="Layer 2"><g id="Layer_1-2" data-name="Layer 1"><rect class="cls-1" width="394" height="394" rx="96.65"/><path class="cls-2" d="M326.72,212.17h0c-2.09-3.22-7.53-10.79-16.8-15.18,9.26-4.4,14.68-12,16.74-15.14h0c1.53-2.81,7.41-14.32,3.71-28.18S316,133,313.06,131.12c-11.47-7.17-18.88-3.65-41-6.92-14.67-2.17-26-3.84-37.65-10.43-15.16-8.54-25-22-36.78-38.07-9-12.26-11.27-18-20.11-22.81-2.91-1.59-14.19-7.47-28.18-3.71s-20.94,14.64-22.55,17.3h0c-1.74,3.4-5.54,11.83-4.75,22C113.36,82,103.46,81,99.53,80.79h0c-3.21.08-16.12.75-26.27,10.88s-10.75,22.81-10.87,26.26c-.48,13.52,6.28,18.18,14.49,38.94,5.45,13.78,9.65,24.4,9.79,37.82.18,17.4-6.52,32.61-14.58,50.88-6.13,13.91-10,18.77-9.7,28.82.08,3.32.63,16,10.87,26.27s23.16,10.81,26.27,10.87h0c4-.2,14-1.21,22.8-7.87-1.47,11,2.74,20.32,4.56,23.88h0c1.67,2.74,8.7,13.58,22.55,17.3s25.13-2.09,28.18-3.71c11.95-6.35,12.6-14.53,26.47-32,9.22-11.61,16.31-20.56,27.86-27.39,15-8.86,31.51-10.65,51.36-12.81,15.11-1.64,21.24-.75,29.81-6,2.83-1.73,13.57-8.56,17.31-22.55S328.22,214.89,326.72,212.17ZM256,220.46c-9.43,12.34-20.23,26.46-35.76,35.73-13.31,7.94-26.61,10.26-40.13,12.61-21,3.65-28.28.68-39.62,8a49.79,49.79,0,0,0-4.33,3.12,43.75,43.75,0,0,0,.52-5.53c.31-10-3.4-14.88-9-28.25-6-14.34-12.79-30.75-13.06-48.84-.22-15.49,4.43-28.18,9.15-41.06,7.33-20,13.55-24.83,12.88-38.31,0-.84-.12-2.07-.29-3.55a43.57,43.57,0,0,0,4,2.83c8.52,5.28,14.59,4.5,29,6.37,15.41,2,33,4.29,48.83,13.11,13.53,7.55,22.19,17.92,31,28.45,13.66,16.35,14.73,24.14,26.74,30.3.77.4,1.89,1,3.29,1.56-1.44.63-2.54,1.2-3.23,1.57C267.16,203.31,264.79,209,256,220.46Z"/></g></g></svg>